# xmcd
#
# Track frame offsets: 
#        150
#        22467
#        34055
#        49953
#        85531
#        119580
#        130267
#        133622
#        144060
#        162843
#        169739
#        175507
#        178473
#        183760
#        192238
#        211990
#        220915
#        224803
#        233235
#        237841
#        244381
#        252944
#        259001
#        267951
#        282937
#        291275
#        308575
#        312113
#        343248
#        354452
#
# Disc length: 4771 seconds
#
# Revision: 0
# Processed by: cddbd v1.5.2PL0 Copyright (c) Steve Scherf et al.
# Submitted via: ExactAudioCopy v0.99pb5
#
DISCID=d112a11e
DTITLE=Kiss  - Dynasty Sessions - Disc 2
DYEAR=1900
DGENRE=
TTITLE0=Sure Know Something - Take 1
TTITLE1=Sure Know Something - Take 2
TTITLE2=Sure Know Something - Take 3
TTITLE3=Sure Know Something - Take 4
TTITLE4=Sure Know Something - Take 5
TTITLE5=Sure Know Something - Take 6
TTITLE6=Sure Know Something - Take 7
TTITLE7=Sure Know Something - Take 8
TTITLE8=Sure Know Something - Take 9
TTITLE9=Sure Know Something - Take 10
TTITLE10=Sure Know Something - Take 11
TTITLE11=Sure Know Something - Take 12
TTITLE12=Sure Know Something - Take 13
TTITLE13=Sure Know Something - Take 14
TTITLE14=Sure Know Something - Take 15
TTITLE15=Sure Know Something - Take 16
TTITLE16=Sure Know Something - Take 17
TTITLE17=Sure Know Something - Take 18
TTITLE18=Sure Know Something - Take 19
TTITLE19=Sure Know Something - Take 20
TTITLE20=Sure Know Something - Take 21
TTITLE21=Sure Know Something - Take 22
TTITLE22=Sure Know Something - Take 23
TTITLE23=Sure Know Something - Take 24
TTITLE24=Sure Know Something - Take 25
TTITLE25=Sure Know Something - Take 26
TTITLE26=Sure Know Something - Take 27
TTITLE27=Sure Know Something - Take 28
TTITLE28=Sure Know Something - Take 29
TTITLE29=Sure Know Something - Take 30
EXTD=
EXTT0=
EXTT1=
EXTT2=
EXTT3=
EXTT4=
EXTT5=
EXTT6=
EXTT7=
EXTT8=
EXTT9=
EXTT10=
EXTT11=
EXTT12=
EXTT13=
EXTT14=
EXTT15=
EXTT16=
EXTT17=
EXTT18=
EXTT19=
EXTT20=
EXTT21=
EXTT22=
EXTT23=
EXTT24=
EXTT25=
EXTT26=
EXTT27=
EXTT28=
EXTT29=
PLAYORDER=
